<mxfile host="app.diagrams.net" modified="2021-03-01T09:54:06.889Z" agent="5.0 (Macintosh; Intel Mac OS X 10_13_6) AppleWebKit/537.36 (KHTML, like Gecko) Chrome/88.0.4324.182 Safari/537.36" etag="nfbRidQFANpNawNhcpgG" version="14.4.3" type="github" pages="2">
  <diagram id="2LWu0yo-6fQRJ07epxTE" name="Page-1">
    <mxGraphModel dx="1047" dy="747" grid="1" gridSize="10" guides="1" tooltips="1" connect="1" arrows="1" fold="1" page="1" pageScale="1" pageWidth="827" pageHeight="1169" math="0" shadow="0">
      <root>
        <mxCell id="0" />
        <mxCell id="1" parent="0" />
        <mxCell id="tYHTIATxIcR3hrglEKvy-1" value="会员中心" style="swimlane;html=1;childLayout=stackLayout;resizeParent=1;resizeParentMax=0;horizontal=0;startSize=20;horizontalStack=0;" vertex="1" parent="1">
          <mxGeometry x="140" y="90" width="1140" height="775" as="geometry" />
        </mxCell>
        <mxCell id="tYHTIATxIcR3hrglEKvy-2" value="一美多" style="swimlane;html=1;startSize=20;horizontal=0;" vertex="1" parent="tYHTIATxIcR3hrglEKvy-1">
          <mxGeometry x="20" width="1120" height="120" as="geometry" />
        </mxCell>
        <mxCell id="tYHTIATxIcR3hrglEKvy-49" value="下单" style="rounded=0;whiteSpace=wrap;html=1;" vertex="1" parent="tYHTIATxIcR3hrglEKvy-2">
          <mxGeometry x="190" y="45" width="80" height="30" as="geometry" />
        </mxCell>
        <mxCell id="tYHTIATxIcR3hrglEKvy-3" value="小鹿" style="swimlane;html=1;startSize=20;horizontal=0;" vertex="1" parent="tYHTIATxIcR3hrglEKvy-1">
          <mxGeometry x="20" y="120" width="1120" height="120" as="geometry" />
        </mxCell>
        <mxCell id="tYHTIATxIcR3hrglEKvy-9" value="下单" style="rounded=0;whiteSpace=wrap;html=1;" vertex="1" parent="tYHTIATxIcR3hrglEKvy-3">
          <mxGeometry x="190" y="50" width="80" height="30" as="geometry" />
        </mxCell>
        <mxCell id="tYHTIATxIcR3hrglEKvy-16" value="支付成功" style="rounded=0;whiteSpace=wrap;html=1;" vertex="1" parent="tYHTIATxIcR3hrglEKvy-3">
          <mxGeometry x="350" y="50" width="80" height="30" as="geometry" />
        </mxCell>
        <mxCell id="tYHTIATxIcR3hrglEKvy-4" value="ERP" style="swimlane;html=1;startSize=20;horizontal=0;" vertex="1" parent="tYHTIATxIcR3hrglEKvy-1">
          <mxGeometry x="20" y="240" width="1120" height="120" as="geometry" />
        </mxCell>
        <mxCell id="tYHTIATxIcR3hrglEKvy-11" value="积分抵现&lt;br&gt;积分换购" style="rounded=0;whiteSpace=wrap;html=1;" vertex="1" parent="tYHTIATxIcR3hrglEKvy-4">
          <mxGeometry x="190" y="45" width="80" height="30" as="geometry" />
        </mxCell>
        <mxCell id="tYHTIATxIcR3hrglEKvy-14" value="积分扣减" style="rounded=0;whiteSpace=wrap;html=1;" vertex="1" parent="tYHTIATxIcR3hrglEKvy-4">
          <mxGeometry x="350" y="45" width="80" height="30" as="geometry" />
        </mxCell>
        <mxCell id="tYHTIATxIcR3hrglEKvy-15" value="" style="edgeStyle=orthogonalEdgeStyle;rounded=0;orthogonalLoop=1;jettySize=auto;html=1;" edge="1" parent="tYHTIATxIcR3hrglEKvy-4" source="tYHTIATxIcR3hrglEKvy-11" target="tYHTIATxIcR3hrglEKvy-14">
          <mxGeometry relative="1" as="geometry" />
        </mxCell>
        <mxCell id="tYHTIATxIcR3hrglEKvy-63" value="积分增加" style="rounded=0;whiteSpace=wrap;html=1;" vertex="1" parent="tYHTIATxIcR3hrglEKvy-4">
          <mxGeometry x="510" y="45" width="80" height="30" as="geometry" />
        </mxCell>
        <mxCell id="tYHTIATxIcR3hrglEKvy-22" value="集效系统" style="swimlane;html=1;startSize=20;horizontal=0;" vertex="1" parent="tYHTIATxIcR3hrglEKvy-1">
          <mxGeometry x="20" y="360" width="1120" height="130" as="geometry" />
        </mxCell>
        <mxCell id="tYHTIATxIcR3hrglEKvy-24" value="积分余额" style="rounded=0;whiteSpace=wrap;html=1;" vertex="1" parent="tYHTIATxIcR3hrglEKvy-22">
          <mxGeometry x="530" y="50" width="80" height="30" as="geometry" />
        </mxCell>
        <mxCell id="tYHTIATxIcR3hrglEKvy-43" value="会员信息" style="rounded=0;whiteSpace=wrap;html=1;" vertex="1" parent="tYHTIATxIcR3hrglEKvy-22">
          <mxGeometry x="190" y="45" width="80" height="30" as="geometry" />
        </mxCell>
        <mxCell id="tYHTIATxIcR3hrglEKvy-27" value="CRM" style="swimlane;html=1;startSize=20;horizontal=0;" vertex="1" parent="tYHTIATxIcR3hrglEKvy-1">
          <mxGeometry x="20" y="490" width="1120" height="165" as="geometry" />
        </mxCell>
        <mxCell id="tYHTIATxIcR3hrglEKvy-28" value="积分余额" style="rounded=0;whiteSpace=wrap;html=1;" vertex="1" parent="tYHTIATxIcR3hrglEKvy-27">
          <mxGeometry x="620" y="67.5" width="80" height="30" as="geometry" />
        </mxCell>
        <mxCell id="tYHTIATxIcR3hrglEKvy-35" value="查询会员信息" style="rounded=0;whiteSpace=wrap;html=1;" vertex="1" parent="tYHTIATxIcR3hrglEKvy-27">
          <mxGeometry x="30" y="50" width="80" height="30" as="geometry" />
        </mxCell>
        <mxCell id="tYHTIATxIcR3hrglEKvy-41" value="注册办卡" style="rounded=0;whiteSpace=wrap;html=1;" vertex="1" parent="tYHTIATxIcR3hrglEKvy-27">
          <mxGeometry x="190" y="50" width="80" height="30" as="geometry" />
        </mxCell>
        <mxCell id="tYHTIATxIcR3hrglEKvy-32" value="店员助手" style="swimlane;html=1;startSize=20;horizontal=0;" vertex="1" parent="tYHTIATxIcR3hrglEKvy-1">
          <mxGeometry x="20" y="655" width="1120" height="120" as="geometry" />
        </mxCell>
        <mxCell id="tYHTIATxIcR3hrglEKvy-33" value="查询会员信息" style="rounded=0;whiteSpace=wrap;html=1;" vertex="1" parent="tYHTIATxIcR3hrglEKvy-32">
          <mxGeometry x="30" y="40" width="80" height="30" as="geometry" />
        </mxCell>
        <mxCell id="tYHTIATxIcR3hrglEKvy-12" value="OMS同步" style="edgeStyle=orthogonalEdgeStyle;rounded=0;orthogonalLoop=1;jettySize=auto;html=1;" edge="1" parent="tYHTIATxIcR3hrglEKvy-1" source="tYHTIATxIcR3hrglEKvy-9" target="tYHTIATxIcR3hrglEKvy-11">
          <mxGeometry relative="1" as="geometry" />
        </mxCell>
        <mxCell id="tYHTIATxIcR3hrglEKvy-17" value="" style="edgeStyle=orthogonalEdgeStyle;rounded=0;orthogonalLoop=1;jettySize=auto;html=1;" edge="1" parent="tYHTIATxIcR3hrglEKvy-1" source="tYHTIATxIcR3hrglEKvy-14" target="tYHTIATxIcR3hrglEKvy-16">
          <mxGeometry relative="1" as="geometry" />
        </mxCell>
        <mxCell id="tYHTIATxIcR3hrglEKvy-36" value="" style="edgeStyle=orthogonalEdgeStyle;rounded=0;orthogonalLoop=1;jettySize=auto;html=1;" edge="1" parent="tYHTIATxIcR3hrglEKvy-1" source="tYHTIATxIcR3hrglEKvy-33" target="tYHTIATxIcR3hrglEKvy-35">
          <mxGeometry relative="1" as="geometry" />
        </mxCell>
        <mxCell id="yvhS6rFNtpGS-2yuj8AR-2" style="edgeStyle=orthogonalEdgeStyle;rounded=0;orthogonalLoop=1;jettySize=auto;html=1;entryX=0.5;entryY=0;entryDx=0;entryDy=0;" edge="1" parent="tYHTIATxIcR3hrglEKvy-1" source="tYHTIATxIcR3hrglEKvy-14" target="tYHTIATxIcR3hrglEKvy-24">
          <mxGeometry relative="1" as="geometry">
            <Array as="points">
              <mxPoint x="410" y="340" />
              <mxPoint x="590" y="340" />
            </Array>
          </mxGeometry>
        </mxCell>
        <mxCell id="tYHTIATxIcR3hrglEKvy-84" style="edgeStyle=orthogonalEdgeStyle;rounded=0;orthogonalLoop=1;jettySize=auto;html=1;entryX=0.5;entryY=0;entryDx=0;entryDy=0;" edge="1" parent="tYHTIATxIcR3hrglEKvy-1" source="tYHTIATxIcR3hrglEKvy-63" target="tYHTIATxIcR3hrglEKvy-24">
          <mxGeometry relative="1" as="geometry">
            <Array as="points">
              <mxPoint x="570" y="370" />
              <mxPoint x="380" y="370" />
            </Array>
          </mxGeometry>
        </mxCell>
        <mxCell id="tYHTIATxIcR3hrglEKvy-44" value="同步" style="edgeStyle=orthogonalEdgeStyle;rounded=0;orthogonalLoop=1;jettySize=auto;html=1;" edge="1" parent="tYHTIATxIcR3hrglEKvy-1" source="tYHTIATxIcR3hrglEKvy-41" target="tYHTIATxIcR3hrglEKvy-43">
          <mxGeometry relative="1" as="geometry" />
        </mxCell>
        <mxCell id="yvhS6rFNtpGS-2yuj8AR-3" style="edgeStyle=orthogonalEdgeStyle;rounded=0;orthogonalLoop=1;jettySize=auto;html=1;exitX=0.5;exitY=1;exitDx=0;exitDy=0;entryX=0.5;entryY=0;entryDx=0;entryDy=0;" edge="1" parent="tYHTIATxIcR3hrglEKvy-1" source="tYHTIATxIcR3hrglEKvy-63" target="tYHTIATxIcR3hrglEKvy-24">
          <mxGeometry relative="1" as="geometry">
            <Array as="points">
              <mxPoint x="590" y="315" />
            </Array>
          </mxGeometry>
        </mxCell>
        <mxCell id="tYHTIATxIcR3hrglEKvy-86" style="edgeStyle=orthogonalEdgeStyle;rounded=0;orthogonalLoop=1;jettySize=auto;html=1;entryX=1;entryY=0.5;entryDx=0;entryDy=0;" edge="1" parent="tYHTIATxIcR3hrglEKvy-1" source="tYHTIATxIcR3hrglEKvy-14" target="tYHTIATxIcR3hrglEKvy-28">
          <mxGeometry relative="1" as="geometry">
            <Array as="points">
              <mxPoint x="410" y="390" />
              <mxPoint x="490" y="390" />
              <mxPoint x="490" y="615" />
            </Array>
          </mxGeometry>
        </mxCell>
        <mxCell id="tYHTIATxIcR3hrglEKvy-25" value="" style="edgeStyle=orthogonalEdgeStyle;rounded=0;orthogonalLoop=1;jettySize=auto;html=1;exitX=0.5;exitY=1;exitDx=0;exitDy=0;" edge="1" parent="tYHTIATxIcR3hrglEKvy-1" source="tYHTIATxIcR3hrglEKvy-14" target="tYHTIATxIcR3hrglEKvy-24">
          <mxGeometry relative="1" as="geometry">
            <mxPoint x="390" y="340" as="sourcePoint" />
            <Array as="points">
              <mxPoint x="410" y="370" />
              <mxPoint x="380" y="370" />
            </Array>
          </mxGeometry>
        </mxCell>
        <mxCell id="tYHTIATxIcR3hrglEKvy-26" value="同步" style="edgeLabel;html=1;align=center;verticalAlign=middle;resizable=0;points=[];" connectable="0" vertex="1" parent="tYHTIATxIcR3hrglEKvy-25">
          <mxGeometry x="-0.1292" y="2" relative="1" as="geometry">
            <mxPoint x="-2" y="-27.4" as="offset" />
          </mxGeometry>
        </mxCell>
        <mxCell id="tYHTIATxIcR3hrglEKvy-88" style="edgeStyle=orthogonalEdgeStyle;rounded=0;orthogonalLoop=1;jettySize=auto;html=1;entryX=1;entryY=0.25;entryDx=0;entryDy=0;" edge="1" parent="tYHTIATxIcR3hrglEKvy-1" source="tYHTIATxIcR3hrglEKvy-63" target="tYHTIATxIcR3hrglEKvy-28">
          <mxGeometry relative="1" as="geometry">
            <mxPoint x="570" y="370" as="targetPoint" />
            <Array as="points">
              <mxPoint x="475" y="300" />
              <mxPoint x="475" y="615" />
              <mxPoint x="420" y="615" />
            </Array>
          </mxGeometry>
        </mxCell>
        <mxCell id="tYHTIATxIcR3hrglEKvy-52" value="" style="edgeStyle=orthogonalEdgeStyle;rounded=0;orthogonalLoop=1;jettySize=auto;html=1;" edge="1" parent="1" source="tYHTIATxIcR3hrglEKvy-49" target="tYHTIATxIcR3hrglEKvy-51">
          <mxGeometry relative="1" as="geometry" />
        </mxCell>
        <mxCell id="tYHTIATxIcR3hrglEKvy-42" value="" style="edgeStyle=orthogonalEdgeStyle;rounded=0;orthogonalLoop=1;jettySize=auto;html=1;" edge="1" parent="1" source="tYHTIATxIcR3hrglEKvy-39" target="tYHTIATxIcR3hrglEKvy-41">
          <mxGeometry relative="1" as="geometry" />
        </mxCell>
        <mxCell id="tYHTIATxIcR3hrglEKvy-54" value="" style="edgeStyle=orthogonalEdgeStyle;rounded=0;orthogonalLoop=1;jettySize=auto;html=1;" edge="1" parent="1" source="tYHTIATxIcR3hrglEKvy-51" target="tYHTIATxIcR3hrglEKvy-53">
          <mxGeometry relative="1" as="geometry" />
        </mxCell>
        <mxCell id="tYHTIATxIcR3hrglEKvy-39" value="代客办卡" style="rounded=0;whiteSpace=wrap;html=1;" vertex="1" parent="1">
          <mxGeometry x="350" y="730" width="80" height="30" as="geometry" />
        </mxCell>
        <mxCell id="tYHTIATxIcR3hrglEKvy-51" value="抵现、换购&lt;br&gt;美豆增减" style="rounded=0;whiteSpace=wrap;html=1;" vertex="1" parent="1">
          <mxGeometry x="520" y="135" width="80" height="30" as="geometry" />
        </mxCell>
        <mxCell id="tYHTIATxIcR3hrglEKvy-40" value="" style="edgeStyle=orthogonalEdgeStyle;rounded=0;orthogonalLoop=1;jettySize=auto;html=1;" edge="1" parent="1" source="tYHTIATxIcR3hrglEKvy-33" target="tYHTIATxIcR3hrglEKvy-39">
          <mxGeometry relative="1" as="geometry" />
        </mxCell>
        <mxCell id="tYHTIATxIcR3hrglEKvy-56" value="" style="edgeStyle=orthogonalEdgeStyle;rounded=0;orthogonalLoop=1;jettySize=auto;html=1;" edge="1" parent="1" source="tYHTIATxIcR3hrglEKvy-53" target="tYHTIATxIcR3hrglEKvy-55">
          <mxGeometry relative="1" as="geometry" />
        </mxCell>
        <mxCell id="tYHTIATxIcR3hrglEKvy-53" value="订单完成" style="rounded=0;whiteSpace=wrap;html=1;" vertex="1" parent="1">
          <mxGeometry x="680" y="135" width="80" height="30" as="geometry" />
        </mxCell>
        <mxCell id="tYHTIATxIcR3hrglEKvy-58" value="" style="edgeStyle=orthogonalEdgeStyle;rounded=0;orthogonalLoop=1;jettySize=auto;html=1;" edge="1" parent="1" source="tYHTIATxIcR3hrglEKvy-55" target="tYHTIATxIcR3hrglEKvy-57">
          <mxGeometry relative="1" as="geometry" />
        </mxCell>
        <mxCell id="tYHTIATxIcR3hrglEKvy-55" value="退货" style="rounded=0;whiteSpace=wrap;html=1;" vertex="1" parent="1">
          <mxGeometry x="840" y="135" width="80" height="30" as="geometry" />
        </mxCell>
        <mxCell id="tYHTIATxIcR3hrglEKvy-60" value="" style="edgeStyle=orthogonalEdgeStyle;rounded=0;orthogonalLoop=1;jettySize=auto;html=1;" edge="1" parent="1" source="tYHTIATxIcR3hrglEKvy-57" target="tYHTIATxIcR3hrglEKvy-59">
          <mxGeometry relative="1" as="geometry" />
        </mxCell>
        <mxCell id="tYHTIATxIcR3hrglEKvy-57" value="美豆增减" style="rounded=0;whiteSpace=wrap;html=1;" vertex="1" parent="1">
          <mxGeometry x="1000" y="135" width="80" height="30" as="geometry" />
        </mxCell>
        <mxCell id="tYHTIATxIcR3hrglEKvy-59" value="售后完成" style="rounded=0;whiteSpace=wrap;html=1;" vertex="1" parent="1">
          <mxGeometry x="1160" y="135" width="80" height="30" as="geometry" />
        </mxCell>
        <mxCell id="tYHTIATxIcR3hrglEKvy-64" value="" style="edgeStyle=orthogonalEdgeStyle;rounded=0;orthogonalLoop=1;jettySize=auto;html=1;" edge="1" parent="1" source="tYHTIATxIcR3hrglEKvy-61" target="tYHTIATxIcR3hrglEKvy-63">
          <mxGeometry relative="1" as="geometry">
            <Array as="points">
              <mxPoint x="710" y="360" />
              <mxPoint x="710" y="360" />
            </Array>
          </mxGeometry>
        </mxCell>
        <mxCell id="tYHTIATxIcR3hrglEKvy-70" value="" style="edgeStyle=orthogonalEdgeStyle;rounded=0;orthogonalLoop=1;jettySize=auto;html=1;" edge="1" parent="1" source="tYHTIATxIcR3hrglEKvy-61" target="tYHTIATxIcR3hrglEKvy-69">
          <mxGeometry relative="1" as="geometry" />
        </mxCell>
        <mxCell id="tYHTIATxIcR3hrglEKvy-61" value="订单完成" style="rounded=0;whiteSpace=wrap;html=1;" vertex="1" parent="1">
          <mxGeometry x="670" y="260" width="80" height="30" as="geometry" />
        </mxCell>
        <mxCell id="tYHTIATxIcR3hrglEKvy-62" value="" style="edgeStyle=orthogonalEdgeStyle;rounded=0;orthogonalLoop=1;jettySize=auto;html=1;" edge="1" parent="1" source="tYHTIATxIcR3hrglEKvy-16" target="tYHTIATxIcR3hrglEKvy-61">
          <mxGeometry relative="1" as="geometry" />
        </mxCell>
        <mxCell id="tYHTIATxIcR3hrglEKvy-72" value="" style="edgeStyle=orthogonalEdgeStyle;rounded=0;orthogonalLoop=1;jettySize=auto;html=1;" edge="1" parent="1" source="tYHTIATxIcR3hrglEKvy-69" target="tYHTIATxIcR3hrglEKvy-71">
          <mxGeometry relative="1" as="geometry">
            <Array as="points">
              <mxPoint x="870" y="360" />
              <mxPoint x="870" y="360" />
            </Array>
          </mxGeometry>
        </mxCell>
        <mxCell id="tYHTIATxIcR3hrglEKvy-69" value="退货" style="rounded=0;whiteSpace=wrap;html=1;" vertex="1" parent="1">
          <mxGeometry x="830" y="260" width="80" height="30" as="geometry" />
        </mxCell>
        <mxCell id="tYHTIATxIcR3hrglEKvy-74" value="" style="edgeStyle=orthogonalEdgeStyle;rounded=0;orthogonalLoop=1;jettySize=auto;html=1;" edge="1" parent="1" source="tYHTIATxIcR3hrglEKvy-71" target="tYHTIATxIcR3hrglEKvy-73">
          <mxGeometry relative="1" as="geometry" />
        </mxCell>
        <mxCell id="tYHTIATxIcR3hrglEKvy-71" value="取消抵现、换购、消费加积分" style="rounded=0;whiteSpace=wrap;html=1;" vertex="1" parent="1">
          <mxGeometry x="810" y="370" width="100" height="30" as="geometry" />
        </mxCell>
        <mxCell id="tYHTIATxIcR3hrglEKvy-76" value="" style="edgeStyle=orthogonalEdgeStyle;rounded=0;orthogonalLoop=1;jettySize=auto;html=1;" edge="1" parent="1" source="tYHTIATxIcR3hrglEKvy-73" target="tYHTIATxIcR3hrglEKvy-75">
          <mxGeometry relative="1" as="geometry" />
        </mxCell>
        <mxCell id="yvhS6rFNtpGS-2yuj8AR-4" style="edgeStyle=orthogonalEdgeStyle;rounded=0;orthogonalLoop=1;jettySize=auto;html=1;exitX=0.5;exitY=1;exitDx=0;exitDy=0;entryX=0.5;entryY=0;entryDx=0;entryDy=0;" edge="1" parent="1" source="tYHTIATxIcR3hrglEKvy-73" target="tYHTIATxIcR3hrglEKvy-24">
          <mxGeometry relative="1" as="geometry">
            <mxPoint x="730" y="490" as="targetPoint" />
            <Array as="points">
              <mxPoint x="1030" y="430" />
              <mxPoint x="730" y="430" />
            </Array>
          </mxGeometry>
        </mxCell>
        <mxCell id="tYHTIATxIcR3hrglEKvy-85" style="edgeStyle=orthogonalEdgeStyle;rounded=0;orthogonalLoop=1;jettySize=auto;html=1;entryX=0.5;entryY=0;entryDx=0;entryDy=0;" edge="1" parent="1" source="tYHTIATxIcR3hrglEKvy-73" target="tYHTIATxIcR3hrglEKvy-24">
          <mxGeometry relative="1" as="geometry">
            <Array as="points">
              <mxPoint x="1030" y="460" />
              <mxPoint x="520" y="460" />
            </Array>
          </mxGeometry>
        </mxCell>
        <mxCell id="tYHTIATxIcR3hrglEKvy-73" value="积分增减" style="rounded=0;whiteSpace=wrap;html=1;" vertex="1" parent="1">
          <mxGeometry x="990" y="370" width="80" height="30" as="geometry" />
        </mxCell>
        <mxCell id="tYHTIATxIcR3hrglEKvy-75" value="售后完成" style="rounded=0;whiteSpace=wrap;html=1;" vertex="1" parent="1">
          <mxGeometry x="990" y="260" width="80" height="30" as="geometry" />
        </mxCell>
        <mxCell id="yvhS6rFNtpGS-2yuj8AR-5" style="edgeStyle=orthogonalEdgeStyle;rounded=0;orthogonalLoop=1;jettySize=auto;html=1;entryX=0.5;entryY=0;entryDx=0;entryDy=0;" edge="1" parent="1">
          <mxGeometry relative="1" as="geometry">
            <mxPoint x="550.0000000000002" y="405" as="sourcePoint" />
            <mxPoint x="730" y="500" as="targetPoint" />
            <Array as="points">
              <mxPoint x="550" y="430" />
              <mxPoint x="730" y="430" />
            </Array>
          </mxGeometry>
        </mxCell>
        <mxCell id="yvhS6rFNtpGS-2yuj8AR-6" style="edgeStyle=orthogonalEdgeStyle;rounded=0;orthogonalLoop=1;jettySize=auto;html=1;exitX=0.5;exitY=1;exitDx=0;exitDy=0;entryX=0.5;entryY=0;entryDx=0;entryDy=0;" edge="1" parent="1">
          <mxGeometry relative="1" as="geometry">
            <mxPoint x="710" y="405" as="sourcePoint" />
            <mxPoint x="730" y="500" as="targetPoint" />
            <Array as="points">
              <mxPoint x="730" y="405" />
            </Array>
          </mxGeometry>
        </mxCell>
        <mxCell id="yvhS6rFNtpGS-2yuj8AR-8" value="同步" style="edgeLabel;html=1;align=center;verticalAlign=middle;resizable=0;points=[];" vertex="1" connectable="0" parent="yvhS6rFNtpGS-2yuj8AR-6">
          <mxGeometry x="0.4807" y="-1" relative="1" as="geometry">
            <mxPoint y="-1" as="offset" />
          </mxGeometry>
        </mxCell>
        <mxCell id="yvhS6rFNtpGS-2yuj8AR-7" style="edgeStyle=orthogonalEdgeStyle;rounded=0;orthogonalLoop=1;jettySize=auto;html=1;exitX=0.5;exitY=1;exitDx=0;exitDy=0;entryX=0.5;entryY=0;entryDx=0;entryDy=0;" edge="1" parent="1" target="tYHTIATxIcR3hrglEKvy-28">
          <mxGeometry relative="1" as="geometry">
            <mxPoint x="730" y="500" as="targetPoint" />
            <mxPoint x="1030" y="400" as="sourcePoint" />
            <Array as="points">
              <mxPoint x="1030" y="430" />
              <mxPoint x="820" y="430" />
            </Array>
          </mxGeometry>
        </mxCell>
        <mxCell id="yvhS6rFNtpGS-2yuj8AR-9" value="同步" style="edgeLabel;html=1;align=center;verticalAlign=middle;resizable=0;points=[];" vertex="1" connectable="0" parent="yvhS6rFNtpGS-2yuj8AR-7">
          <mxGeometry x="0.5557" y="2" relative="1" as="geometry">
            <mxPoint as="offset" />
          </mxGeometry>
        </mxCell>
      </root>
    </mxGraphModel>
  </diagram>
  <diagram id="HbGo5-caFmJTjo9cXi7R" name="Page-2">
    <mxGraphModel grid="1" gridSize="10" guides="1" tooltips="1" connect="1" arrows="1" page="1" fold="1" pageScale="1" pageWidth="827" pageHeight="1169" math="0" shadow="0">
      <root>
        <mxCell id="ttavIkpEvPPcWypS6qjb-0" />
        <mxCell id="ttavIkpEvPPcWypS6qjb-1" parent="ttavIkpEvPPcWypS6qjb-0" />
        <mxCell id="nJ0QCx3TuC5LVo5OvKf7-0" value="会员中心" style="swimlane;html=1;childLayout=stackLayout;resizeParent=1;resizeParentMax=0;horizontal=0;startSize=20;horizontalStack=0;" parent="ttavIkpEvPPcWypS6qjb-1" vertex="1">
          <mxGeometry x="140" y="70" width="1140" height="750" as="geometry" />
        </mxCell>
        <mxCell id="nJ0QCx3TuC5LVo5OvKf7-1" value="一美多" style="swimlane;html=1;startSize=20;horizontal=0;" parent="nJ0QCx3TuC5LVo5OvKf7-0" vertex="1">
          <mxGeometry x="20" width="1120" height="120" as="geometry" />
        </mxCell>
        <mxCell id="nJ0QCx3TuC5LVo5OvKf7-2" value="注册" style="rounded=0;whiteSpace=wrap;html=1;" parent="nJ0QCx3TuC5LVo5OvKf7-1" vertex="1">
          <mxGeometry x="70" y="45" width="80" height="30" as="geometry" />
        </mxCell>
        <mxCell id="nJ0QCx3TuC5LVo5OvKf7-34" value="注册完成" style="rounded=0;whiteSpace=wrap;html=1;" parent="nJ0QCx3TuC5LVo5OvKf7-1" vertex="1">
          <mxGeometry x="250" y="45" width="80" height="30" as="geometry" />
        </mxCell>
        <mxCell id="nJ0QCx3TuC5LVo5OvKf7-32" value="" style="edgeStyle=orthogonalEdgeStyle;rounded=0;orthogonalLoop=1;jettySize=auto;html=1;" parent="nJ0QCx3TuC5LVo5OvKf7-1" source="nJ0QCx3TuC5LVo5OvKf7-2" target="nJ0QCx3TuC5LVo5OvKf7-34" edge="1">
          <mxGeometry relative="1" as="geometry" />
        </mxCell>
        <mxCell id="nJ0QCx3TuC5LVo5OvKf7-3" value="小鹿" style="swimlane;html=1;startSize=20;horizontal=0;" parent="nJ0QCx3TuC5LVo5OvKf7-0" vertex="1">
          <mxGeometry x="20" y="120" width="1120" height="130" as="geometry" />
        </mxCell>
        <mxCell id="nJ0QCx3TuC5LVo5OvKf7-4" value="登录注册" style="rounded=0;whiteSpace=wrap;html=1;" parent="nJ0QCx3TuC5LVo5OvKf7-3" vertex="1">
          <mxGeometry x="70" y="50" width="80" height="30" as="geometry" />
        </mxCell>
        <mxCell id="nJ0QCx3TuC5LVo5OvKf7-63" value="查询会员信息" style="rounded=0;whiteSpace=wrap;html=1;" parent="nJ0QCx3TuC5LVo5OvKf7-3" vertex="1">
          <mxGeometry x="330" y="50" width="80" height="30" as="geometry" />
        </mxCell>
        <mxCell id="nJ0QCx3TuC5LVo5OvKf7-6" value="ERP" style="swimlane;html=1;startSize=20;horizontal=0;" parent="nJ0QCx3TuC5LVo5OvKf7-0" vertex="1">
          <mxGeometry x="20" y="250" width="1120" height="120" as="geometry" />
        </mxCell>
        <mxCell id="nJ0QCx3TuC5LVo5OvKf7-58" value="会员信息" style="rounded=0;whiteSpace=wrap;html=1;" parent="nJ0QCx3TuC5LVo5OvKf7-6" vertex="1">
          <mxGeometry x="190" y="45" width="80" height="30" as="geometry" />
        </mxCell>
        <mxCell id="nJ0QCx3TuC5LVo5OvKf7-11" value="集效系统" style="swimlane;html=1;startSize=20;horizontal=0;" parent="nJ0QCx3TuC5LVo5OvKf7-0" vertex="1">
          <mxGeometry x="20" y="370" width="1120" height="140" as="geometry" />
        </mxCell>
        <mxCell id="nJ0QCx3TuC5LVo5OvKf7-13" value="会员信息" style="rounded=0;whiteSpace=wrap;html=1;" parent="nJ0QCx3TuC5LVo5OvKf7-11" vertex="1">
          <mxGeometry x="190" y="45" width="80" height="30" as="geometry" />
        </mxCell>
        <mxCell id="nJ0QCx3TuC5LVo5OvKf7-56" style="edgeStyle=orthogonalEdgeStyle;rounded=0;orthogonalLoop=1;jettySize=auto;html=1;exitX=1;exitY=0.5;exitDx=0;exitDy=0;entryX=0;entryY=0.5;entryDx=0;entryDy=0;" parent="nJ0QCx3TuC5LVo5OvKf7-11" source="nJ0QCx3TuC5LVo5OvKf7-54" target="nJ0QCx3TuC5LVo5OvKf7-13" edge="1">
          <mxGeometry relative="1" as="geometry" />
        </mxCell>
        <mxCell id="nJ0QCx3TuC5LVo5OvKf7-54" value="注册" style="rounded=0;whiteSpace=wrap;html=1;" parent="nJ0QCx3TuC5LVo5OvKf7-11" vertex="1">
          <mxGeometry x="70" y="45" width="80" height="30" as="geometry" />
        </mxCell>
        <mxCell id="nJ0QCx3TuC5LVo5OvKf7-14" value="CRM" style="swimlane;html=1;startSize=20;horizontal=0;" parent="nJ0QCx3TuC5LVo5OvKf7-0" vertex="1">
          <mxGeometry x="20" y="510" width="1120" height="120" as="geometry" />
        </mxCell>
        <mxCell id="nJ0QCx3TuC5LVo5OvKf7-17" value="注册办卡" style="rounded=0;whiteSpace=wrap;html=1;" parent="nJ0QCx3TuC5LVo5OvKf7-14" vertex="1">
          <mxGeometry x="190" y="50" width="80" height="30" as="geometry" />
        </mxCell>
        <mxCell id="nJ0QCx3TuC5LVo5OvKf7-69" value="会员信息" style="rounded=0;whiteSpace=wrap;html=1;" parent="nJ0QCx3TuC5LVo5OvKf7-14" vertex="1">
          <mxGeometry x="350" y="50" width="80" height="30" as="geometry" />
        </mxCell>
        <mxCell id="nJ0QCx3TuC5LVo5OvKf7-18" value="店员助手" style="swimlane;html=1;startSize=20;horizontal=0;" parent="nJ0QCx3TuC5LVo5OvKf7-0" vertex="1">
          <mxGeometry x="20" y="630" width="1120" height="120" as="geometry" />
        </mxCell>
        <mxCell id="nJ0QCx3TuC5LVo5OvKf7-19" value="查询会员信息" style="rounded=0;whiteSpace=wrap;html=1;" parent="nJ0QCx3TuC5LVo5OvKf7-18" vertex="1">
          <mxGeometry x="350" y="40" width="80" height="30" as="geometry" />
        </mxCell>
        <mxCell id="nJ0QCx3TuC5LVo5OvKf7-30" value="代客办卡" style="rounded=0;whiteSpace=wrap;html=1;" parent="nJ0QCx3TuC5LVo5OvKf7-18" vertex="1">
          <mxGeometry x="190" y="40" width="80" height="30" as="geometry" />
        </mxCell>
        <mxCell id="nJ0QCx3TuC5LVo5OvKf7-22" value="同步" style="edgeStyle=orthogonalEdgeStyle;rounded=0;orthogonalLoop=1;jettySize=auto;html=1;" parent="nJ0QCx3TuC5LVo5OvKf7-0" source="nJ0QCx3TuC5LVo5OvKf7-17" target="nJ0QCx3TuC5LVo5OvKf7-13" edge="1">
          <mxGeometry relative="1" as="geometry" />
        </mxCell>
        <mxCell id="nJ0QCx3TuC5LVo5OvKf7-55" value="" style="edgeStyle=orthogonalEdgeStyle;rounded=0;orthogonalLoop=1;jettySize=auto;html=1;" parent="nJ0QCx3TuC5LVo5OvKf7-0" source="nJ0QCx3TuC5LVo5OvKf7-4" target="nJ0QCx3TuC5LVo5OvKf7-54" edge="1">
          <mxGeometry relative="1" as="geometry" />
        </mxCell>
        <mxCell id="nJ0QCx3TuC5LVo5OvKf7-59" value="" style="edgeStyle=orthogonalEdgeStyle;rounded=0;orthogonalLoop=1;jettySize=auto;html=1;" parent="nJ0QCx3TuC5LVo5OvKf7-0" source="nJ0QCx3TuC5LVo5OvKf7-13" target="nJ0QCx3TuC5LVo5OvKf7-58" edge="1">
          <mxGeometry relative="1" as="geometry" />
        </mxCell>
        <mxCell id="nJ0QCx3TuC5LVo5OvKf7-60" value="同步" style="edgeLabel;html=1;align=center;verticalAlign=middle;resizable=0;points=[];" parent="nJ0QCx3TuC5LVo5OvKf7-59" vertex="1" connectable="0">
          <mxGeometry x="0.1238" relative="1" as="geometry">
            <mxPoint y="-1" as="offset" />
          </mxGeometry>
        </mxCell>
        <mxCell id="nJ0QCx3TuC5LVo5OvKf7-65" value="" style="edgeStyle=orthogonalEdgeStyle;rounded=0;orthogonalLoop=1;jettySize=auto;html=1;entryX=1;entryY=0.5;entryDx=0;entryDy=0;" parent="nJ0QCx3TuC5LVo5OvKf7-0" source="nJ0QCx3TuC5LVo5OvKf7-63" target="nJ0QCx3TuC5LVo5OvKf7-13" edge="1">
          <mxGeometry relative="1" as="geometry">
            <mxPoint x="390" y="405" as="targetPoint" />
            <Array as="points">
              <mxPoint x="390" y="430" />
            </Array>
          </mxGeometry>
        </mxCell>
        <mxCell id="nJ0QCx3TuC5LVo5OvKf7-29" value="" style="edgeStyle=orthogonalEdgeStyle;rounded=0;orthogonalLoop=1;jettySize=auto;html=1;" parent="nJ0QCx3TuC5LVo5OvKf7-0" source="nJ0QCx3TuC5LVo5OvKf7-30" target="nJ0QCx3TuC5LVo5OvKf7-17" edge="1">
          <mxGeometry relative="1" as="geometry">
            <Array as="points">
              <mxPoint x="250" y="620" />
              <mxPoint x="250" y="620" />
            </Array>
          </mxGeometry>
        </mxCell>
        <mxCell id="nJ0QCx3TuC5LVo5OvKf7-70" value="" style="edgeStyle=orthogonalEdgeStyle;rounded=0;orthogonalLoop=1;jettySize=auto;html=1;" parent="nJ0QCx3TuC5LVo5OvKf7-0" source="nJ0QCx3TuC5LVo5OvKf7-19" target="nJ0QCx3TuC5LVo5OvKf7-69" edge="1">
          <mxGeometry relative="1" as="geometry" />
        </mxCell>
        <mxCell id="nJ0QCx3TuC5LVo5OvKf7-71" style="edgeStyle=orthogonalEdgeStyle;rounded=0;orthogonalLoop=1;jettySize=auto;html=1;exitX=1;exitY=0.5;exitDx=0;exitDy=0;entryX=0.5;entryY=0;entryDx=0;entryDy=0;" parent="nJ0QCx3TuC5LVo5OvKf7-0" source="nJ0QCx3TuC5LVo5OvKf7-58" target="nJ0QCx3TuC5LVo5OvKf7-69" edge="1">
          <mxGeometry relative="1" as="geometry" />
        </mxCell>
        <mxCell id="nJ0QCx3TuC5LVo5OvKf7-72" value="同步" style="edgeLabel;html=1;align=center;verticalAlign=middle;resizable=0;points=[];" parent="nJ0QCx3TuC5LVo5OvKf7-71" vertex="1" connectable="0">
          <mxGeometry x="0.483" y="3" relative="1" as="geometry">
            <mxPoint y="-1" as="offset" />
          </mxGeometry>
        </mxCell>
        <mxCell id="nJ0QCx3TuC5LVo5OvKf7-43" value="" style="edgeStyle=orthogonalEdgeStyle;rounded=0;orthogonalLoop=1;jettySize=auto;html=1;" parent="ttavIkpEvPPcWypS6qjb-1" edge="1">
          <mxGeometry relative="1" as="geometry">
            <mxPoint x="750" y="275" as="sourcePoint" />
          </mxGeometry>
        </mxCell>
        <mxCell id="nJ0QCx3TuC5LVo5OvKf7-45" value="" style="edgeStyle=orthogonalEdgeStyle;rounded=0;orthogonalLoop=1;jettySize=auto;html=1;" parent="ttavIkpEvPPcWypS6qjb-1" edge="1">
          <mxGeometry relative="1" as="geometry">
            <mxPoint x="590" y="255" as="sourcePoint" />
          </mxGeometry>
        </mxCell>
        <mxCell id="nJ0QCx3TuC5LVo5OvKf7-67" value="查询会员信息" style="rounded=0;whiteSpace=wrap;html=1;" parent="ttavIkpEvPPcWypS6qjb-1" vertex="1">
          <mxGeometry x="570" y="115" width="80" height="30" as="geometry" />
        </mxCell>
        <mxCell id="nJ0QCx3TuC5LVo5OvKf7-68" value="" style="edgeStyle=orthogonalEdgeStyle;rounded=0;orthogonalLoop=1;jettySize=auto;html=1;" parent="ttavIkpEvPPcWypS6qjb-1" source="nJ0QCx3TuC5LVo5OvKf7-34" target="nJ0QCx3TuC5LVo5OvKf7-67" edge="1">
          <mxGeometry relative="1" as="geometry" />
        </mxCell>
      </root>
    </mxGraphModel>
  </diagram>
</mxfile>
